# xmcd
#
# Track frame offsets:
#	150
#	12539
#	24792
#	36965
#	47084
#	60320
#	70910
#	84169
#	98801
#	111683
#	123689
#	136301
#	148236
#	160570
#	172654
#	185516
#	196619
#	208543
#	222572
#	232417
#
# Disc length: 3264 seconds
#
# Revision: 2
# Processed by: cddbd v1.5.1PL0 Copyright (c) Steve Scherf et al.
# Submitted via: audiograbber 1.83.01
#
DISCID=1d0cbe14
DTITLE=Various Artist - Country Gold Vol. 1
DYEAR=1900
DGENRE=Country
TTITLE0=Hank Williams - Your Cheatin´ Heart
TTITLE1=Frankie Lane - High Noon
TTITLE2=Kitty Wells - It Wasn´t God Who Made Honky Tonk Angels
TTITLE3=Eddy Arnold - I Wanna Play House With You
TTITLE4=Tex Williams - Smoke! Smoke! Smoke! That Cigarette
TTITLE5=Les Paul and Mary Ford - Mockin´Bird Hill
TTITLE6=Hank Williams - Jambalaya
TTITLE7=Red Foley - Peace In The Valley
TTITLE8=Al Dexter - Pistol Packin´ Mama
TTITLE9=Bob Wills - New San Antonio Rose
TTITLE10=Hank Williams - Lovesick Blues
TTITLE11=Ernest Tubb - Walking The Floor Over You
TTITLE12=Evelyn Knight - A Little Bird Told Me
TTITLE13=Gene Autry - That Silver Haired Daddy of Mine
TTITLE14=Hank Snow - I´m Movin´ On
TTITLE15=Hank Thompson - Humpty Dumpty Heart
TTITLE16=Eddy Arnold - All Alone In This World Without You
TTITLE17=Lonnie Johnson - Tomorrow Night
TTITLE18=Frankie Laine - I Believe
TTITLE19=Hank Williams - Cold Cold Heart
EXTD=
EXTT0=
EXTT1=
EXTT2=
EXTT3=
EXTT4=
EXTT5=
EXTT6=
EXTT7=
EXTT8=
EXTT9=
EXTT10=
EXTT11=
EXTT12=
EXTT13=
EXTT14=
EXTT15=
EXTT16=
EXTT17=
EXTT18=
EXTT19=
PLAYORDER=
